<svg width="21" height="19" viewBox="0 0 21 19" fill="none" xmlns="http://www.w3.org/2000/svg">
<path d="M17.5732 4.89758H3.2538C2.12403 4.89758 1.20818 5.81344 1.20818 6.94321V15.1257C1.20818 16.2555 2.12403 17.1713 3.2538 17.1713H17.5732C18.7029 17.1713 19.6188 16.2555 19.6188 15.1257V6.94321C19.6188 5.81344 18.7029 4.89758 17.5732 4.89758Z" stroke="#808080" stroke-width="2" stroke-linecap="round" stroke-linejoin="round"/>
<path d="M7.34473 3.87448C7.34473 3.33195 7.56025 2.81163 7.94388 2.42801C8.3275 2.04438 8.84782 1.82886 9.39035 1.82886H11.436C11.9785 1.82886 12.4988 2.04438 12.8824 2.42801C13.2661 2.81163 13.4816 3.33195 13.4816 3.87448V4.89729H7.34473V3.87448Z" stroke="#808080" stroke-width="2" stroke-linecap="round" stroke-linejoin="round"/>
</svg>
