<svg width="62" height="19" viewBox="0 0 62 19" fill="none" xmlns="http://www.w3.org/2000/svg">
<path d="M4.088 7.056V18H0.776V0.959999H3.416L12.224 12.192V0.983999H15.536V18H12.776L4.088 7.056ZM37.6567 18V6.816L33.2887 15.144H31.4407L27.0727 6.816V18H23.7607V0.959999H27.3127L32.3527 10.656L37.4407 0.959999H40.9687V18H37.6567ZM59.3583 5.424C59.2463 5.312 59.0383 5.16 58.7343 4.968C58.4463 4.776 58.0863 4.592 57.6543 4.416C57.2383 4.24 56.7823 4.088 56.2863 3.96C55.7903 3.816 55.2863 3.744 54.7743 3.744C53.8783 3.744 53.1983 3.912 52.7343 4.248C52.2863 4.584 52.0623 5.056 52.0623 5.664C52.0623 6.128 52.2063 6.496 52.4943 6.768C52.7823 7.04 53.2143 7.272 53.7903 7.464C54.3663 7.656 55.0863 7.864 55.9503 8.088C57.0703 8.36 58.0383 8.696 58.8543 9.096C59.6863 9.48 60.3183 9.992 60.7503 10.632C61.1983 11.256 61.4223 12.088 61.4223 13.128C61.4223 14.04 61.2543 14.824 60.9183 15.48C60.5823 16.12 60.1183 16.64 59.5263 17.04C58.9343 17.44 58.2623 17.736 57.5103 17.928C56.7583 18.104 55.9583 18.192 55.1103 18.192C54.2623 18.192 53.4143 18.104 52.5663 17.928C51.7183 17.752 50.9023 17.504 50.1183 17.184C49.3343 16.848 48.6143 16.448 47.9583 15.984L49.4223 13.128C49.5663 13.272 49.8223 13.464 50.1903 13.704C50.5583 13.928 51.0063 14.16 51.5343 14.4C52.0623 14.624 52.6383 14.816 53.2623 14.976C53.8863 15.136 54.5183 15.216 55.1583 15.216C56.0543 15.216 56.7343 15.064 57.1983 14.76C57.6623 14.456 57.8943 14.024 57.8943 13.464C57.8943 12.952 57.7103 12.552 57.3423 12.264C56.9743 11.976 56.4623 11.728 55.8063 11.52C55.1503 11.296 54.3743 11.056 53.4783 10.8C52.4063 10.496 51.5103 10.16 50.7903 9.792C50.0703 9.408 49.5343 8.928 49.1823 8.352C48.8303 7.776 48.6543 7.056 48.6543 6.192C48.6543 5.024 48.9263 4.048 49.4703 3.264C50.0303 2.464 50.7823 1.864 51.7263 1.464C52.6703 1.048 53.7183 0.839999 54.8703 0.839999C55.6703 0.839999 56.4223 0.927999 57.1263 1.104C57.8463 1.28 58.5183 1.512 59.1423 1.8C59.7663 2.088 60.3263 2.4 60.8223 2.736L59.3583 5.424Z" fill="#414343"/>
</svg>
