<svg width="23" height="22" viewBox="0 0 23 22" fill="none" xmlns="http://www.w3.org/2000/svg">
<path d="M6.854 5.4C6.64515 5.4 6.44484 5.48297 6.29716 5.63065C6.14947 5.77834 6.0665 5.97864 6.0665 6.1875V13.0625C6.0665 13.2714 6.14947 13.4717 6.29716 13.6193C6.44484 13.767 6.64515 13.85 6.854 13.85C7.06286 13.85 7.26317 13.767 7.41085 13.6193C7.55854 13.4717 7.6415 13.2714 7.6415 13.0625V6.1875C7.6415 5.97864 7.55854 5.77834 7.41085 5.63065C7.26317 5.48297 7.06286 5.4 6.854 5.4ZM11.2082 5.4C10.9993 5.4 10.799 5.48297 10.6513 5.63065C10.5036 5.77834 10.4207 5.97864 10.4207 6.1875V10.3125C10.4207 10.5214 10.5036 10.7217 10.6513 10.8693C10.799 11.017 10.9993 11.1 11.2082 11.1C11.417 11.1 11.6173 11.017 11.765 10.8693C11.9127 10.7217 11.9957 10.5214 11.9957 10.3125V6.1875C11.9957 5.97864 11.9127 5.77834 11.765 5.63065C11.6173 5.48297 11.417 5.4 11.2082 5.4ZM15.0055 5.63065C14.8578 5.77834 14.7748 5.97864 14.7748 6.1875V14.8958C14.7748 15.1047 14.8578 15.305 15.0055 15.4527C15.1532 15.6004 15.3535 15.6833 15.5623 15.6833C15.7712 15.6833 15.9715 15.6004 16.1192 15.4527C16.2669 15.305 16.3498 15.1047 16.3498 14.8958V6.1875C16.3498 5.97864 16.2669 5.77834 16.1192 5.63065C15.9715 5.48297 15.7712 5.4 15.5623 5.4C15.3535 5.4 15.1532 5.48297 15.0055 5.63065Z" fill="#808080" stroke="#808080" stroke-width="0.2"/>
<path d="M3.64567 1.73325C3.1937 1.73325 2.76024 1.9128 2.44064 2.23239C2.12105 2.55198 1.9415 2.98545 1.9415 3.43742V18.5624C1.9415 19.5031 2.70494 20.2666 3.64567 20.2666H18.7707C19.2226 20.2666 19.6561 20.087 19.9757 19.7674C20.2953 19.4479 20.4748 19.0144 20.4748 18.5624V3.43742C20.4748 2.98545 20.2953 2.55198 19.9757 2.23239C19.6561 1.9128 19.2226 1.73325 18.7707 1.73325H3.64567ZM3.5165 3.43742C3.5165 3.40316 3.53011 3.37031 3.55434 3.34608C3.57856 3.32186 3.61141 3.30825 3.64567 3.30825H18.7707C18.8049 3.30825 18.8378 3.32186 18.862 3.34608C18.8862 3.37031 18.8998 3.40316 18.8998 3.43742V18.5624C18.8998 18.5967 18.8862 18.6295 18.862 18.6538C18.8378 18.678 18.8049 18.6916 18.7707 18.6916H3.64567C3.61141 18.6916 3.57856 18.678 3.55434 18.6538C3.53011 18.6295 3.5165 18.5967 3.5165 18.5624V3.43742Z" fill="#808080" stroke="#808080" stroke-width="0.2"/>
</svg>
