<svg width="64" height="54" viewBox="0 0 64 54" fill="none" xmlns="http://www.w3.org/2000/svg">
<circle cx="26.5" cy="27" r="26.5" fill="#D9D9D9"/>
<path d="M26.5 26.1469C27.6813 26.1469 28.8362 25.7965 29.8184 25.1402C30.8007 24.4839 31.5663 23.551 32.0184 22.4596C32.4705 21.3681 32.5888 20.1671 32.3583 19.0085C32.1278 17.8498 31.5589 16.7855 30.7236 15.9502C29.8882 15.1148 28.8239 14.5459 27.6653 14.3155C26.5066 14.085 25.3056 14.2033 24.2142 14.6554C23.1227 15.1074 22.1899 15.873 21.5335 16.8553C20.8772 17.8376 20.5269 18.9924 20.5269 20.1738C20.5269 21.7579 21.1562 23.2772 22.2764 24.3974C23.3965 25.5175 24.9158 26.1469 26.5 26.1469ZM26.5 15.9073C27.3438 15.9073 28.1687 16.1575 28.8703 16.6263C29.5719 17.0951 30.1188 17.7615 30.4417 18.5411C30.7646 19.3207 30.8491 20.1785 30.6845 21.0061C30.5199 21.8337 30.1135 22.594 29.5168 23.1906C28.9202 23.7873 28.1599 24.1937 27.3323 24.3583C26.5047 24.5229 25.6469 24.4384 24.8673 24.1155C24.0877 23.7926 23.4213 23.2457 22.9525 22.5441C22.4837 21.8425 22.2335 21.0176 22.2335 20.1738C22.2335 19.0422 22.683 17.957 23.4831 17.1569C24.2832 16.3568 25.3684 15.9073 26.5 15.9073Z" fill="#808080"/>
<path d="M37.1406 32.4356C35.7722 30.9892 34.1231 29.8372 32.2943 29.0499C30.4655 28.2625 28.4953 27.8564 26.5042 27.8564C24.5131 27.8564 22.543 28.2625 20.7142 29.0499C18.8853 29.8372 17.2363 30.9892 15.8679 32.4356C15.5712 32.7525 15.4064 33.1705 15.4071 33.6046V38.0929C15.4071 38.5455 15.5869 38.9796 15.907 39.2997C16.227 39.6197 16.6611 39.7995 17.1137 39.7995H35.8862C36.3389 39.7995 36.7729 39.6197 37.093 39.2997C37.413 38.9796 37.5928 38.5455 37.5928 38.0929V33.6046C37.5958 33.1717 37.4342 32.7538 37.1406 32.4356ZM35.8862 38.0929H17.1137V33.5961C18.323 32.3227 19.7788 31.3086 21.3924 30.6157C23.0061 29.9228 24.7438 29.5655 26.5 29.5655C28.2561 29.5655 29.9939 29.9228 31.6075 30.6157C33.2212 31.3086 34.6769 32.3227 35.8862 33.5961V38.0929Z" fill="#808080"/>
<path fill-rule="evenodd" clip-rule="evenodd" d="M53 30.5C46.925 30.5 42 35.425 42 41.5C42 47.575 46.925 52.5 53 52.5C59.075 52.5 64 47.575 64 41.5C64 35.425 59.075 30.5 53 30.5ZM54 45.5C54 45.7652 53.8946 46.0196 53.7071 46.2071C53.5196 46.3946 53.2652 46.5 53 46.5C52.7348 46.5 52.4804 46.3946 52.2929 46.2071C52.1054 46.0196 52 45.7652 52 45.5V42.5H49C48.7348 42.5 48.4804 42.3946 48.2929 42.2071C48.1054 42.0196 48 41.7652 48 41.5C48 41.2348 48.1054 40.9804 48.2929 40.7929C48.4804 40.6054 48.7348 40.5 49 40.5H52V37.5C52 37.2348 52.1054 36.9804 52.2929 36.7929C52.4804 36.6054 52.7348 36.5 53 36.5C53.2652 36.5 53.5196 36.6054 53.7071 36.7929C53.8946 36.9804 54 37.2348 54 37.5V40.5H57C57.2652 40.5 57.5196 40.6054 57.7071 40.7929C57.8946 40.9804 58 41.2348 58 41.5C58 41.7652 57.8946 42.0196 57.7071 42.2071C57.5196 42.3946 57.2652 42.5 57 42.5H54V45.5Z" fill="#3BBCA0"/>
</svg>
