<svg width="22" height="22" viewBox="0 0 22 22" fill="none" xmlns="http://www.w3.org/2000/svg">
<path d="M11.208 1C16.731 1 21.208 5.478 21.208 11C21.208 16.522 16.731 21 11.208 21C5.68501 21 1.20801 16.522 1.20801 11C1.20801 5.478 5.68501 1 11.208 1ZM11.208 2.667C6.61301 2.667 2.87501 6.405 2.87501 11C2.87501 15.595 6.61301 19.333 11.208 19.333C15.803 19.333 19.541 15.595 19.541 11C19.541 6.405 15.803 2.667 11.208 2.667ZM10.458 5C10.8375 5 11.1515 5.28233 11.2012 5.64827L11.208 5.75V11H14.458C14.872 11 15.208 11.336 15.208 11.75C15.208 12.1295 14.9257 12.4435 14.5597 12.4931L14.458 12.5H10.458C10.0785 12.5 9.76455 12.2177 9.71486 11.8517L9.70801 11.75V5.75C9.70801 5.336 10.044 5 10.458 5Z" fill="#808080" stroke="#808080" stroke-width="0.5"/>
</svg>
