<svg width="24" height="25" viewBox="0 0 24 25" fill="none" xmlns="http://www.w3.org/2000/svg">
<path d="M11.708 8C9.22273 8 7.20801 10.0147 7.20801 12.5C7.20801 14.9853 9.22273 17 11.708 17C13.0568 17 14.267 16.4066 15.0918 15.4666C15.7867 14.6745 16.208 13.6365 16.208 12.5C16.208 12.0401 16.139 11.5962 16.0108 11.1783C15.4462 9.338 13.7333 8 11.708 8ZM8.70801 12.5C8.70801 10.8431 10.0512 9.5 11.708 9.5C13.3649 9.5 14.708 10.8431 14.708 12.5C14.708 14.1569 13.3649 15.5 11.708 15.5C10.0512 15.5 8.70801 14.1569 8.70801 12.5ZM19.4173 20.8947L17.6898 20.1364C17.1956 19.9197 16.6151 19.9514 16.148 20.2219C15.6809 20.4923 15.383 20.9692 15.3237 21.5065L15.116 23.3855C15.0731 23.7729 14.792 24.0917 14.4135 24.1819C12.6343 24.606 10.7805 24.606 9.00126 24.1819C8.62277 24.0917 8.34164 23.7729 8.29881 23.3855L8.09143 21.5093C8.03052 20.973 7.71921 20.4976 7.25253 20.228C6.78584 19.9585 6.21918 19.9269 5.72659 20.1424L3.99872 20.9009C3.64082 21.058 3.22294 20.9718 2.95607 20.6858C1.71275 19.3536 0.787248 17.7561 0.249223 16.0136C0.133339 15.6383 0.267232 15.2307 0.582908 14.9976L2.1102 13.8703C2.54522 13.55 2.80214 13.0415 2.80214 12.5006C2.80214 11.9597 2.54522 11.4512 2.10963 11.1305L0.583296 10.0051C0.267151 9.77196 0.133135 9.36375 0.249428 8.98812C0.788384 7.24728 1.71437 5.65157 2.95772 4.32108C3.22485 4.03522 3.64293 3.94935 4.00077 4.10685L5.72097 4.86398C6.21594 5.08162 6.78497 5.04875 7.25418 4.77409C7.72136 4.50258 8.03238 4.02521 8.09242 3.48787L8.30134 1.61011C8.34497 1.21797 8.63254 0.896974 9.01695 0.811314C9.89804 0.614979 10.7971 0.510651 11.7211 0.5C12.6227 0.510412 13.5208 0.614784 14.4008 0.811432C14.785 0.897275 15.0723 1.21817 15.1159 1.61011L15.325 3.48931C15.4196 4.35214 16.1467 5.00566 17.0135 5.00657C17.2465 5.00694 17.477 4.95832 17.6923 4.86288L19.4128 4.10562C19.7706 3.94812 20.1887 4.03399 20.4558 4.31984C21.6992 5.65034 22.6252 7.24605 23.1641 8.98689C23.2803 9.36227 23.1466 9.77022 22.8308 10.0034L21.3058 11.1297C20.8708 11.4499 20.608 11.9585 20.608 12.4994C20.608 13.0402 20.8708 13.5488 21.3068 13.8697L22.8331 14.9964C23.149 15.2296 23.2828 15.6376 23.1666 16.013C22.6278 17.7536 21.7024 19.3491 20.4598 20.6799C20.1929 20.9657 19.7751 21.0518 19.4173 20.8947ZM13.971 20.6965C14.2062 19.9684 14.6969 19.3288 15.3964 18.9238C16.2782 18.4132 17.3616 18.3546 18.2921 18.7626L19.6361 19.3526C20.499 18.3537 21.1673 17.2013 21.6061 15.9551L20.4175 15.0777L20.4166 15.077C19.606 14.4799 19.108 13.5276 19.108 12.4994C19.108 11.4718 19.6054 10.5195 20.4153 9.92265L20.4166 9.9217L21.6037 9.04496C21.1647 7.79874 20.4961 6.6463 19.6328 5.64764L18.3002 6.23419L18.2979 6.23521C17.8924 6.41457 17.4552 6.50716 17.0119 6.50657C15.3795 6.50447 14.0126 5.27425 13.8341 3.65459L13.8339 3.65285L13.6715 2.19298C13.0282 2.07322 12.3757 2.00866 11.721 2.00011C11.0469 2.00885 10.3901 2.07361 9.74572 2.19322L9.58315 3.65446C9.47048 4.66266 8.88731 5.55902 8.00992 6.0698C7.12738 6.58554 6.05253 6.64837 5.1167 6.23688L3.78074 5.64887C2.9175 6.64745 2.24892 7.79977 1.80997 9.04587L2.99982 9.92319C3.81916 10.5268 4.30214 11.4836 4.30214 12.5006C4.30214 13.5172 3.81943 14.4742 3.00038 15.0776L1.80962 15.9565C2.24803 17.2044 2.9165 18.3584 3.78006 19.3587L5.12543 18.7681C6.05545 18.3613 7.12374 18.4214 8.00272 18.9291C8.88199 19.4369 9.46734 20.3319 9.58185 21.34L9.58236 21.3445L9.74419 22.8087C11.0406 23.0638 12.3742 23.0638 13.6706 22.8087L13.8327 21.3417C13.8571 21.1217 13.9035 20.9054 13.971 20.6965Z" fill="#808080" stroke="#808080" stroke-width="0.3"/>
</svg>
