<svg width="23" height="23" viewBox="0 0 23 23" fill="none" xmlns="http://www.w3.org/2000/svg">
<path d="M22.308 3.75C22.308 1.89985 20.8082 0.4 18.958 0.4H3.45801C1.60785 0.4 0.108008 1.89985 0.108008 3.75V19.25C0.108008 21.1002 1.60785 22.6 3.45801 22.6H18.958C20.8082 22.6 22.308 21.1002 22.308 19.25V3.75ZM1.80801 19.25V7.103H20.608V19.25C20.608 20.1613 19.8693 20.9 18.958 20.9H3.45801C2.54674 20.9 1.80801 20.1613 1.80801 19.25ZM7.30679 16.2514C7.30679 15.5058 6.70237 14.9014 5.95679 14.9014C5.2112 14.9014 4.60678 15.5058 4.60678 16.2514C4.60678 16.997 5.2112 17.6014 5.95679 17.6014C6.70237 17.6014 7.30679 16.997 7.30679 16.2514ZM12.5613 16.2514C12.5613 15.5058 11.9569 14.9014 11.2113 14.9014C10.4657 14.9014 9.86127 15.5058 9.86127 16.2514C9.86127 16.997 10.4657 17.6014 11.2113 17.6014C11.9569 17.6014 12.5613 16.997 12.5613 16.2514ZM7.30679 11.2514C7.30679 10.5058 6.70237 9.90141 5.95679 9.90141C5.2112 9.90141 4.60678 10.5058 4.60678 11.2514C4.60678 11.997 5.2112 12.6014 5.95679 12.6014C6.70237 12.6014 7.30679 11.997 7.30679 11.2514ZM12.5613 11.2514C12.5613 10.5058 11.9569 9.90141 11.2113 9.90141C10.4657 9.90141 9.86127 10.5058 9.86127 11.2514C9.86127 11.997 10.4657 12.6014 11.2113 12.6014C11.9569 12.6014 12.5613 11.997 12.5613 11.2514ZM17.8157 11.2514C17.8157 10.5058 17.2113 9.90141 16.4657 9.90141C15.7202 9.90141 15.1157 10.5058 15.1157 11.2514C15.1157 11.997 15.7202 12.6014 16.4657 12.6014C17.2113 12.6014 17.8157 11.997 17.8157 11.2514ZM3.45801 2.1H18.958C19.8693 2.1 20.608 2.83873 20.608 3.75V5.403H1.80801V3.75C1.80801 2.83873 2.54674 2.1 3.45801 2.1Z" fill="#808080" stroke="#808080" stroke-width="0.2"/>
</svg>
