<svg width="20" height="24" viewBox="0 0 20 24" fill="none" xmlns="http://www.w3.org/2000/svg">
<path d="M10.408 9.9C10.408 9.40294 10.811 9 11.308 9H15.508C16.0051 9 16.408 9.40294 16.408 9.9C16.408 10.3971 16.0051 10.8 15.508 10.8H11.308C10.811 10.8 10.408 10.3971 10.408 9.9ZM11.3081 15.6C10.811 15.6 10.4081 16.0029 10.4081 16.5C10.4081 16.9971 10.811 17.4 11.3081 17.4H15.5079C16.005 17.4 16.4079 16.9971 16.4079 16.5C16.4079 16.0029 16.005 15.6 15.5079 15.6H11.3081ZM8.3444 9.3364C8.69588 8.98492 8.69588 8.41508 8.3444 8.0636C7.99293 7.71213 7.42308 7.71213 7.07161 8.0636L5.30801 9.82721L4.7444 9.2636C4.39293 8.91213 3.82308 8.91213 3.47161 9.2636C3.12014 9.61508 3.12014 10.1849 3.47161 10.5364L4.67161 11.7364C5.02308 12.0879 5.59293 12.0879 5.9444 11.7364L8.3444 9.3364ZM8.3444 14.6636C8.69588 15.0151 8.69588 15.5849 8.3444 15.9364L5.9444 18.3364C5.59293 18.6879 5.02308 18.6879 4.67161 18.3364L3.47161 17.1364C3.12014 16.7849 3.12014 16.2151 3.47161 15.8636C3.82308 15.5121 4.39293 15.5121 4.7444 15.8636L5.30801 16.4272L7.07161 14.6636C7.42308 14.3121 7.99293 14.3121 8.3444 14.6636ZM14.6008 2.50139C14.4991 1.10296 13.3324 0 11.908 0H7.70801C6.31847 0 5.1741 1.04967 5.02456 2.39933L2.90801 2.4C1.41684 2.4 0.208008 3.60883 0.208008 5.1V21.3C0.208008 22.7912 1.41684 24 2.90801 24H16.708C18.1992 24 19.408 22.7912 19.408 21.3V5.1C19.408 3.60883 18.1992 2.4 16.708 2.4L14.5915 2.39933C14.5952 2.43316 14.5983 2.46719 14.6008 2.50139ZM14.6018 2.51514L14.608 2.7C14.608 2.63787 14.6059 2.57622 14.6018 2.51514ZM7.70801 5.4H11.908C12.844 5.4 13.6688 4.92368 14.1532 4.2002L16.708 4.2C17.2051 4.2 17.608 4.60294 17.608 5.1V21.3C17.608 21.7971 17.2051 22.2 16.708 22.2H2.90801C2.41095 22.2 2.00801 21.7971 2.00801 21.3V5.1C2.00801 4.60294 2.41095 4.2 2.90801 4.2L5.46283 4.20024C5.94721 4.92372 6.77197 5.4 7.70801 5.4ZM7.70801 1.8H11.908C12.4051 1.8 12.808 2.20294 12.808 2.7C12.808 3.19706 12.4051 3.6 11.908 3.6H7.70801C7.21095 3.6 6.80801 3.19706 6.80801 2.7C6.80801 2.20294 7.21095 1.8 7.70801 1.8Z" fill="#808080"/>
</svg>
