<svg width="21" height="26" viewBox="0 0 21 26" fill="none" xmlns="http://www.w3.org/2000/svg">
<path d="M5.80762 11.25C5.80762 9.45507 7.26269 8 9.05762 8H12.5576C14.3525 8 15.8076 9.45507 15.8076 11.25C15.8076 12.2165 15.0241 13 14.0576 13H7.55762C6.59112 13 5.80762 12.2165 5.80762 11.25ZM9.05762 9.5C8.09112 9.5 7.30762 10.2835 7.30762 11.25C7.30762 11.3881 7.41955 11.5 7.55762 11.5H14.0576C14.1957 11.5 14.3076 11.3881 14.3076 11.25C14.3076 10.2835 13.5241 9.5 12.5576 9.5H9.05762ZM10.8076 1C8.31925 1 6.25544 2.81776 5.87162 5.19784C2.85343 6.85512 0.807617 10.0636 0.807617 13.75V21.25C0.807617 23.3211 2.48655 25 4.55762 25H17.0576C19.1287 25 20.8076 23.3211 20.8076 21.25V13.75C20.8076 10.0636 18.7618 6.85512 15.7436 5.19784C15.3598 2.81776 13.296 1 10.8076 1ZM10.5576 4C9.55502 4 8.58776 4.15133 7.67745 4.4324C8.25245 3.28648 9.43819 2.5 10.8076 2.5C12.177 2.5 13.3628 3.28648 13.9378 4.4324C13.0275 4.15133 12.0602 4 11.0576 4H10.5576ZM10.5576 5.5H11.0576C15.614 5.5 19.3076 9.19365 19.3076 13.75V15H2.30762V13.75C2.30762 9.19365 6.00127 5.5 10.5576 5.5ZM5.80762 16.5V18.25C5.80762 18.6642 6.1434 19 6.55762 19C6.97183 19 7.30762 18.6642 7.30762 18.25V16.5H19.3076V21.25C19.3076 22.4926 18.3003 23.5 17.0576 23.5H4.55762C3.31498 23.5 2.30762 22.4926 2.30762 21.25V16.5H5.80762Z" fill="#808080" stroke="#808080" stroke-width="0.3" stroke-linecap="round"/>
</svg>
