<svg width="19" height="22" viewBox="0 0 19 22" fill="none" xmlns="http://www.w3.org/2000/svg">
<path d="M11.1768 0C12.5165 0 13.6131 1.01768 13.7022 2.30555L13.708 2.475C13.708 2.38184 13.7027 2.28987 13.6925 2.19938L15.6768 2.2C17.0747 2.2 18.208 3.3081 18.208 4.675V19.525C18.208 20.8919 17.0747 22 15.6768 22H2.73926C1.34129 22 0.208008 20.8919 0.208008 19.525V4.675C0.208008 3.3081 1.34129 2.2 2.73926 2.2L4.72353 2.19938C4.71626 2.26351 4.7115 2.32838 4.70934 2.39389L4.70801 2.475C4.70801 1.1081 5.84129 0 7.23926 0H11.1768ZM11.1768 4.95H7.23926C6.34595 4.95 5.56072 4.49754 5.11021 3.81421L5.13441 3.85022L2.73926 3.85C2.27327 3.85 1.89551 4.21937 1.89551 4.675V19.525C1.89551 19.9806 2.27327 20.35 2.73926 20.35H15.6768C16.1427 20.35 16.5205 19.9806 16.5205 19.525V4.675C16.5205 4.21937 16.1427 3.85 15.6768 3.85L13.2816 3.85022L13.3058 3.81421C12.8553 4.49754 12.0701 4.95 11.1768 4.95ZM11.1768 1.65H7.23926C6.77327 1.65 6.39551 2.01937 6.39551 2.475C6.39551 2.93063 6.77327 3.3 7.23926 3.3H11.1768C11.6427 3.3 12.0205 2.93063 12.0205 2.475C12.0205 2.01937 11.6427 1.65 11.1768 1.65ZM4.70801 13.75H9.20801C9.674 13.75 10.0518 13.3806 10.0518 12.925C10.0518 12.4694 9.674 12.1 9.20801 12.1H4.70801C4.24202 12.1 3.86426 12.4694 3.86426 12.925C3.86426 13.3806 4.24202 13.75 4.70801 13.75ZM4.70801 9.35H13.708C14.174 9.35 14.5518 8.98063 14.5518 8.525C14.5518 8.06937 14.174 7.7 13.708 7.7H4.70801C4.24202 7.7 3.86426 8.06937 3.86426 8.525C3.86426 8.98063 4.24202 9.35 4.70801 9.35ZM4.70801 18.15H11.458C11.924 18.15 12.3018 17.7806 12.3018 17.325C12.3018 16.8694 11.924 16.5 11.458 16.5H4.70801C4.24202 16.5 3.86426 16.8694 3.86426 17.325C3.86426 17.7806 4.24202 18.15 4.70801 18.15Z" fill="#808080"/>
</svg>
