<svg width="25" height="24" viewBox="0 0 25 24" fill="none" xmlns="http://www.w3.org/2000/svg">
<path d="M8.20801 23.15H2.87467C1.87745 23.15 1.05801 22.3306 1.05801 21.3333V2.66667C1.05801 1.66944 1.87745 0.85 2.87467 0.85H8.20801C9.20523 0.85 10.0247 1.66944 10.0247 2.66667V21.3333C10.0247 22.3306 9.20523 23.15 8.20801 23.15ZM21.5413 23.15H16.208C15.2108 23.15 14.3913 22.3306 14.3913 21.3333V14.6667C14.3913 13.6694 15.2108 12.85 16.208 12.85H21.5413C22.5386 12.85 23.358 13.6694 23.358 14.6667V21.3333C23.358 22.3306 22.5386 23.15 21.5413 23.15ZM23.358 2.66667V6.66667C23.358 7.66389 22.5386 8.48333 21.5413 8.48333H16.208C15.2108 8.48333 14.3913 7.66389 14.3913 6.66667V2.66667C14.3913 1.66944 15.2108 0.85 16.208 0.85H21.5413C22.5386 0.85 23.358 1.66944 23.358 2.66667Z" stroke="#808080" stroke-width="1.7"/>
</svg>
